# xmcd CD database file
#
# Track frame offsets:
#	150
#	15900
#	30075
#	43210
#	67557
#	93891
#	107054
#	119232
#	132282
#	156553
#	172416
#	188330
#	214055
#	237417
#	258015
#	282426
#	314873
#
# Disc length: 4573 seconds
#
# Revision: 0
# Processed by: cddbd v1.5.2PL0 Copyright (c) Steve Scherf et al.
# Submitted via: CDex 1.93
#
DISCID=ed11db11
DTITLE=Nina Simone - At Town Hall (+Bonus Tracks)
DYEAR=1959
DGENRE=Jazz
TTITLE0=Black Is The Color Of My True Love`'s Hair
TTITLE1=Exactly Like Tou
TTITLE2=The Other Woman
TTITLE3=Under The Lowest
TTITLE4=You Can Have Him
TTITLE5=Summertime (Instrumental)
TTITLE6=Summertime (Vocal)
TTITLE7=Cotton Eyed Joe
TTITLE8=Return Home
TTITLE9=Wild Is The Wind
TTITLE10=Fine And Mellow
TTITLE11=Trouble In Mind
TTITLE12=Porgy
TTITLE13=Little Liza Jane
TTITLE14=You'd Be So Nice To Come Home To
TTITLE15=Flo Me La
TTITLE16=In The Evening By The Moonlight
EXTD=YEAR: 1959
EXTT0=
EXTT1=
EXTT2=
EXTT3=
EXTT4=
EXTT5=
EXTT6=
EXTT7=
EXTT8=
EXTT9=
EXTT10=
EXTT11=
EXTT12=
EXTT13=
EXTT14=
EXTT15=
EXTT16=
PLAYORDER=
